<?xml version="1.0" encoding="utf-8"?><!DOCTYPE svg PUBLIC "-//W3C//DTD SVG 1.1//EN" "http://www.w3.org/Graphics/SVG/1.1/DTD/svg11.dtd"><svg viewBox="0 0 713 713" xmlns="http://www.w3.org/2000/svg" xmlns:xlink="http://www.w3.org/1999/xlink"><style>:root>svg{display:none}:root>svg:target{display:block}</style><svg viewBox="0 -101 713.752 713" id="airplane" xmlns="http://www.w3.org/2000/svg"><path d="M85.086 304.406c-6.145 2.883-8.856 10.14-6.117 16.344L107.035 381c1.38 3 3.895 5.336 6.988 6.488 1.356.492 2.793.746 4.239.746a12.419 12.419 0 005.238-1.117l212.055-99.047-19.207 200.825a12.478 12.478 0 004.109 10.48 54.445 54.445 0 0032.938 12.473 40.103 40.103 0 009.851-1.243c17.215-4.492 30.563-19.832 39.668-46.03l83.45-247.102 165.273-77.094c48.648-22.7 73.718-68.727 56.883-104.652a63.149 63.149 0 00-48.774-34.055 115.623 115.623 0 00-68.105 10.484L400.914 101.59 195.852 21.383c-25.825-9.727-46.278-9.477-60.622.879a50.87 50.87 0 00-18.59 40.285 12.483 12.483 0 005.364 9.86l138.082 94.921-79.078 37.422-132.602-33.684a12.48 12.48 0 00-13.844 5.989L1.512 236.55a12.441 12.441 0 00-.739 10.262A12.447 12.447 0 008 254.14l98.168 40.543zm57.121-248.094a21.342 21.342 0 017.488-13.472c7.114-5.117 20.086-4.367 37.422 2.117l182.617 71.227-83.328 38.918zM29.949 236.43l21.703-38.543 127.606 31.68c2.75.695 5.652.433 8.238-.743l414.75-193.719a91.172 91.172 0 0153.262-8.484 39.067 39.067 0 0130.437 19.707c10.47 22.457-10.11 55.262-44.914 71.477l-143.695 67.363 8.734-25.828c2.207-6.645-1.398-13.824-8.043-16.028-6.652-2.203-13.828 1.403-16.03 8.047L379.335 456.836c-6.113 17.344-13.723 27.7-22.203 29.937a21.11 21.11 0 01-15.219-2.863l24.95-261.953c.652-6.887-4.4-13-11.294-13.652-6.886-.66-13 4.398-13.656 11.285l-3.863 40.039-214.055 99.789-17.578-37.422 35.168-16.46a12.474 12.474 0 007.445-11.415c0-4.945-2.918-9.422-7.445-11.414zm0 0"/></svg><svg viewBox="0 0 512 512" id="application" xmlns="http://www.w3.org/2000/svg"><path d="M362.937 0h-294c-16.542 0-30 13.458-30 30v102c0 5.523 4.478 10 10 10s10-4.477 10-10V30c0-5.514 4.486-10 10-10h294c5.514 0 10 4.486 10 10v372c0 5.514-4.486 10-10 10h-294c-5.514 0-10-4.486-10-10V216.333c0-5.523-4.478-10-10-10s-10 4.477-10 10V402c0 16.542 13.458 30 30 30h294c16.542 0 30-13.458 30-30V30c0-16.542-13.458-30-30-30z"/><path d="M56.006 169.7c-1.859-1.86-4.439-2.92-7.069-2.92s-5.21 1.06-7.07 2.92a10.107 10.107 0 00-2.93 7.07 10.1 10.1 0 002.93 7.08c1.86 1.86 4.44 2.93 7.07 2.93 2.629 0 5.209-1.07 7.069-2.93a10.078 10.078 0 002.931-7.08c0-2.63-1.071-5.2-2.931-7.07zM96.066 454.99a10.056 10.056 0 00-7.07-2.93c-2.63 0-5.21 1.07-7.069 2.93a10.072 10.072 0 00-2.931 7.07c0 2.64 1.071 5.21 2.931 7.07a10.029 10.029 0 007.069 2.93c2.641 0 5.21-1.06 7.07-2.93a10.054 10.054 0 002.93-7.07c0-2.63-1.07-5.21-2.93-7.07zM423 40.063c-5.522 0-10 4.477-10 10v392c0 5.514-4.486 10-10 10H129c-5.522 0-10 4.477-10 10s4.478 10 10 10h274c16.542 0 30-13.458 30-30v-392c0-5.523-4.478-10-10-10z"/><path d="M463.063 80c-5.522 0-10 4.477-10 10v392c0 5.514-4.486 10-10 10h-314c-5.522 0-10 4.477-10 10s4.478 10 10 10h314c16.542 0 30-13.458 30-30V90c0-5.523-4.478-10-10-10zM200.937 74h-96c-5.522 0-10 4.477-10 10v96c0 5.523 4.478 10 10 10h96c5.522 0 10-4.477 10-10V84c0-5.523-4.478-10-10-10zm-10 96h-76V94h76v76zM168.761 235.402c-3.906-3.904-10.236-3.905-14.143 0l-26.583 26.583-12.36-12.361c-3.905-3.905-10.235-3.904-14.143 0-3.905 3.905-3.905 10.237 0 14.142l19.432 19.432a10.003 10.003 0 0014.143 0l33.654-33.654c3.905-3.905 3.905-10.237 0-14.142z"/><path d="M332.604 249H215.937c-5.522 0-10 4.477-10 10s4.478 10 10 10h116.667c5.522 0 10-4.477 10-10s-4.478-10-10-10zM326.937 74h-70c-5.522 0-10 4.477-10 10s4.478 10 10 10h70c5.522 0 10-4.477 10-10s-4.478-10-10-10zM326.937 122h-70c-5.522 0-10 4.477-10 10s4.478 10 10 10h70c5.522 0 10-4.477 10-10s-4.478-10-10-10zM326.937 170h-70c-5.522 0-10 4.477-10 10s4.478 10 10 10h70c5.522 0 10-4.477 10-10s-4.478-10-10-10zM168.761 311.769c-3.906-3.904-10.236-3.905-14.143 0l-26.583 26.583-12.36-12.361c-3.905-3.905-10.235-3.904-14.143 0-3.905 3.905-3.905 10.237 0 14.142l19.432 19.432a10.003 10.003 0 0014.143 0l33.654-33.654c3.905-3.905 3.905-10.237 0-14.142zM332.604 325H215.937c-5.522 0-10 4.477-10 10s4.478 10 10 10h116.667c5.522 0 10-4.477 10-10s-4.478-10-10-10z"/></svg><svg viewBox="0 0 512.002 512.002" id="arrow" xmlns="http://www.w3.org/2000/svg"><path d="M388.425 241.951L151.609 5.79c-7.759-7.733-20.321-7.72-28.067.04-7.74 7.759-7.72 20.328.04 28.067l222.72 222.105-222.728 222.104c-7.759 7.74-7.779 20.301-.04 28.061a19.8 19.8 0 0014.057 5.835 19.79 19.79 0 0014.017-5.795l236.817-236.155c3.737-3.718 5.834-8.778 5.834-14.05s-2.103-10.326-5.834-14.051z"/></svg><svg viewBox="0 0 64 64" id="check" xmlns="http://www.w3.org/2000/svg"><path d="M36 57h-3.184c.112-.314.184-.648.184-1V42c0-1.654-1.346-3-3-3h-5v-3c0-1.654-1.346-3-3-3h-6c-1.654 0-3 1.346-3 3v3H8c-1.654 0-3 1.346-3 3v14c0 .352.072.686.184 1H2a1 1 0 00-1 1v4a1 1 0 001 1h34a1 1 0 001-1v-4a1 1 0 00-1-1zM15 36c0-.552.449-1 1-1h6c.551 0 1 .448 1 1v3h-8v-3zm-7 5h22c.551 0 1 .448 1 1v1H7v-1c0-.552.449-1 1-1zm3 4h16v2H11v-2zM7 56V45h2v3a1 1 0 001 1h18a1 1 0 001-1v-3h2v11c0 .552-.449 1-1 1H8c-.551 0-1-.448-1-1zm28 5H3v-2h32v2z"/><path d="M62 23a1 1 0 001-1V2a1 1 0 00-1-1H30a1 1 0 00-1 1v20a1 1 0 001 1h13v2a5.01 5.01 0 00-4.899 4H30a1 1 0 00-1 1v4a1 1 0 001 1h25v22H44c-2.757 0-5 2.243-5 5a1 1 0 001 1h22a1 1 0 001-1v-4a1 1 0 00-1-1h-1V35h1a1 1 0 001-1v-4a1 1 0 00-1-1h-8.101A5.009 5.009 0 0049 25v-2h13zM31 3h30v18H31V3zm30 58H41.171A3.006 3.006 0 0144 59h17v2zm-2-4h-2V35h2v22zm2-24H31v-2h30v2zm-9.171-4H40.171A3.006 3.006 0 0143 27h6c1.304 0 2.416.836 2.829 2zM47 25h-2v-2h2v2z"/><path d="M52.12 4.526l-6.363 11.816-4.05-4.05-1.414 1.414 5 5a.997.997 0 001.587-.233l7-13-1.76-.947zM57 17h-5v2h6a1 1 0 001-1v-6h-2v5zM33 6v6h2V7h5V5h-6a1 1 0 00-1 1z"/></svg><svg viewBox="0 0 512 512" id="contract" xmlns="http://www.w3.org/2000/svg"><path d="M373.147 20.122L77.707.361c-9.631-.638-17.984 6.665-18.629 16.293l-2.311 34.557H17.5c-9.649 0-17.5 7.851-17.5 17.5v425.466c0 9.649 7.851 17.5 17.5 17.5h226.141a7.58 7.58 0 005.292-2.185l34.138-33.987c.347.074.701.133 1.065.157l58.282 3.898c9.302.614 18.005-6.952 18.629-16.293L389.44 38.752c.639-9.528-6.766-17.993-16.293-18.63zM251.141 486.024v-52.1c0-1.378 1.122-2.5 2.5-2.5h51.9zm94.939-23.757c-.244 1.51-1.131 2.286-2.66 2.327l-46.28-3.096 31.752-31.611a7.498 7.498 0 002.209-5.315V68.712c0-9.649-7.851-17.5-17.5-17.5h-77.993c-9.697 0-9.697 15 0 15h77.993c1.379 0 2.5 1.122 2.5 2.5v347.712h-62.46c-9.649 0-17.5 7.851-17.5 17.5v62.753H17.5a2.503 2.503 0 01-2.5-2.5V68.712c0-1.378 1.122-2.5 2.5-2.5h178.168c9.697 0 9.697-15 0-15H71.8l2.244-33.556c.244-1.511 1.131-2.286 2.661-2.327l295.44 19.76c1.511.244 2.287 1.131 2.328 2.661z"/><path d="M267.827 237.047H63.274a7.5 7.5 0 000 15h204.553c4.143 0 7.5-3.358 7.5-7.5s-3.357-7.5-7.5-7.5zM267.827 289.332H63.274a7.5 7.5 0 000 15h204.553c4.143 0 7.5-3.358 7.5-7.5s-3.357-7.5-7.5-7.5zM55.774 192.262a7.5 7.5 0 007.5 7.5h204.553c4.143 0 7.5-3.358 7.5-7.5s-3.357-7.5-7.5-7.5H63.274a7.5 7.5 0 00-7.5 7.5zM91.807 139.977a7.5 7.5 0 007.5 7.5h132.487a7.5 7.5 0 000-15H99.307a7.5 7.5 0 00-7.5 7.5zM194.755 438.787c-13.489.036-26.978.065-40.467.086-4.534.007-9.067.013-13.6.016-8.215.006-13.75-1.643-15.59-10.679-1.556-7.64-12.364-6.613-14.464 0-5.19 16.337-13.774 9.936-18.582-1.053-4.797-10.963-6.027-23.233-8.122-34.9-1.54-8.573-14.506-6.17-14.732 1.994-.298 10.751-1.302 21.331-4.031 31.758-2.815 10.758-7.034 21.097-11.222 31.376-3.651 8.961 10.867 12.816 14.464 3.988 3.711-9.108 7.427-18.266 10.193-27.714 5.14 12.36 15.774 26.34 30.927 18.101 2.819-1.533 5.452-3.712 7.763-6.253 7.88 9.106 19.609 8.388 30.584 8.375 15.627-.02 31.254-.054 46.881-.095 9.649-.025 9.667-15.025-.002-15zM505.932 246.439c-3.897-3.878-9.255-5.867-14.695-6.014l-5.668.028v-10.719c0-6.529-3.878-13.427-9.433-16.862v-15.098c0-31.069-48.372-30.934-48.372.146v15.1c-5.659 3.498-9.455 9.741-9.455 16.852v10.982c-24.966 1.7-25.037 39.745.028 41.232.16 33.575.152 66.6-.028 100.737-.049 9.414 14.949 9.966 15 .079.18-34.166.188-67.22.029-100.823l37.211-.185s-.048 110.848-.048 160.784c0 24.338-37.219 24.5-37.219-.253l.013-13.677c.585-9.68-14.387-10.583-14.973-.904v12.834c0 11 3.402 20.316 9.988 26.869.586 15.693 7.198 30.878 18.369 41.956 3.205 3.18 7.642 2.208 10.744-.182 11.365-11.385 17.769-26.394 18.169-42.414 4.951-4.931 9.908-9.896 9.908-26.896l.006-68.351c12.97 3.689 26.494-6.348 26.494-19.946v-90.672a20.461 20.461 0 00-6.068-14.603zm-72.623-5.727v-10.841c0-2.219 1.523-4.08 3.573-4.633l30.025-.149c.84.208 1.615.605 2.243 1.231a4.785 4.785 0 011.419 3.414v10.794zm18.671-52c4.604 0 9.155 4.514 9.155 9.062v12.166l-18.372.091V197.92c.001-5.053 4.133-9.183 9.217-9.208zm-.011 303.901a47.846 47.846 0 01-7.417-16.406c2.322.503 4.674.765 7.027.765 2.627 0 5.253-.326 7.839-.957a46.767 46.767 0 01-7.449 16.598zM497 351.714c0 7.101-11.452 7.66-11.452.131 0 0 .013-70.974.021-77.48.005-4.196-3.483-7.509-7.558-7.509l-58.389.29c-7.242 0-7.073-11.331.074-11.366l71.615-.355c3.463.295 5.359 2.168 5.688 5.617v90.672z"/></svg><svg viewBox="0 0 512.001 512.001" id="cruise" xmlns="http://www.w3.org/2000/svg"><path d="M401.851 295.316l-64.68-39.91c-4.649-2.869-10.91-1.356-13.77 3.259-2.866 4.625-1.345 10.921 3.26 13.76l64.68 39.91c4.647 2.867 10.903 1.392 13.76-3.259 2.857-4.652 1.401-10.893-3.25-13.76zM297.883 232.915c-6.387-.001-11.203 6.079-9.743 12.295.581 2.476 2.283 4.725 4.525 6.145 1.539.975 3.333 1.56 5.196 1.56 3.499 0 6.689-1.769 8.519-4.748 3.898-6.346-1.002-15.251-8.497-15.252zM194.333 258.148c-2.821-4.493-9.325-5.945-13.792-3.123l-64.29 40.54c-4.625 2.916-6.036 9.164-3.123 13.785 1.751 2.779 5.13 4.408 8.475 4.502 1.882.053 3.753-.38 5.318-1.367l64.29-40.55c4.624-2.916 6.028-9.159 3.122-13.787zM219.691 232.145c-4.644 0-8.713 3.264-9.74 7.788-1.399 6.163 3.48 12.212 9.76 12.212 4.635 0 8.727-3.263 9.75-7.791 1.401-6.2-3.433-12.209-9.77-12.209z"/><path d="M509.548 455.464c-3.624-4.168-9.94-4.608-14.108-.984-10.663 9.271-20.531 18.883-34.522 22.75-15.553 4.298-30.334.906-44.41-6.132l52.079-175.224a10 10 0 00-4.403-11.401l-48.183-29.195v-85.253c0-5.522-4.477-10-10-10h-20v-30c0-5.522-4.477-10-10-10h-31.5v-30c0-5.522-4.477-10-10-10h-48.5v-70c0-5.522-4.477-10-10-10h-40c-5.523 0-10 4.478-10 10v70h-48.5c-5.523 0-10 4.478-10 10v30h-31.5c-5.523 0-10 4.478-10 10v30h-20c-5.523 0-10 4.478-10 10v85.253l-48.182 29.194a9.999 9.999 0 00-4.403 11.401l51.973 174.866c-.887-2.984-16.889-4.949-19.718-5.315-29.117-3.768-51.258 10.818-72.232 29.055-4.168 3.624-4.608 9.939-.985 14.107 3.459 3.978 9.896 4.646 14.107.985 21.608-18.784 45.969-33.103 74.559-18.806 25.864 12.931 52.636 18.476 79.575 4.3 21.722-11.434 42.684-21.307 66.93-9.763l24.927 11.87c21.326 10.156 45.674 9.922 66.799-.642 13.018-6.509 26.249-15.171 41.119-16.193 14.576-1.001 28.66 4.426 41.467 10.835 16.919 8.46 36.726 10.15 54.894 4.971 16.735-4.771 28.914-15.429 41.731-26.573 4.169-3.623 4.609-9.938.986-14.106zM396.001 180.025v63.135l-104.198-63.135h104.198zm-150-160h20v60h-20v-60zm-58.5 80h137v20h-137v-20zm-71.5 80h104.198L116.001 243.16v-63.135zm130 287.115c.002-1.777-14.255-5.055-16.12-5.459-17.404-3.767-36.088-1.375-51.866 6.93-11.448 6.025-22.493 13.054-35.586 14.74l-.072.009c-7.65.93-15.48.367-22.884-1.792L64.786 297.577l181.215-109.8V467.14zm-100-307.115v-20h220v20h-220zm252.022 303.059c.111-3.094-28.039-3.066-29.925-2.867-17.358 1.836-32.374 10.767-47.692 18.426-18.096 9.048-36.716 6.447-54.405-1.98V187.777l181.215 109.8-49.193 165.507z"/></svg><svg viewBox="0 0 512 512" id="declaration" xmlns="http://www.w3.org/2000/svg"><g fill-rule="evenodd" clip-rule="evenodd"><path d="M387.21 195.239c-5.523 0-10 4.477-10 10v247.216H134.792v-20.002c0-5.523-4.477-10-10-10s-10 4.477-10 10v30.002c0 5.523 4.477 10 10 10H387.21c5.522 0 10-4.477 10-10V205.239c0-5.522-4.478-10-10-10z"/><path d="M426.753 45.693H338.32c-9.629-8.596-22.316-13.835-36.209-13.835h-5.459C292.158 13.591 275.636 0 256.001 0c-19.635 0-36.157 13.591-40.652 31.859h-5.46c-13.893 0-26.58 5.238-36.208 13.835H85.247c-5.523 0-10 4.477-10 10V502c0 5.523 4.477 10 10 10h341.507c5.523 0 10-4.477 10-10V55.693c-.001-5.523-4.478-10-10.001-10zm-202.612 6.166c5.523 0 10-4.477 10-10C234.141 29.806 243.947 20 256 20c12.054 0 21.859 9.806 21.859 21.859 0 5.523 4.478 10 10 10h14.252c9.662 0 18.401 4.005 24.661 10.435.085.097.154.203.243.297 7.538 7.952 9.493 17.561 9.516 28.122.003 1.508.016 3.017.016 4.524v4.531H175.454v-4.531c0-12.153.701-23.378 9.531-32.646.089-.094.159-.201.244-.297 6.259-6.43 14.999-10.435 24.66-10.435h14.252zM416.753 492H95.247V65.693h64.265c-.024.06-.045.121-.069.182a54.851 54.851 0 00-3.963 19.362h-30.688c-5.523 0-10 4.477-10 10v257.217c0 5.523 4.477 10 10 10s10-4.477 10-10V105.237h20.662v4.531c0 5.523 4.477 10 10 10h181.094c5.522 0 10-4.477 10-10v-4.531h20.662v20.002c0 5.523 4.477 10 10 10 5.522 0 10-4.477 10-10V95.237c0-5.523-4.478-10-10-10h-30.688a54.462 54.462 0 00-3.977-19.396c-.021-.049-.037-.099-.057-.147h64.265V492z"/><path d="M256.001 376.329c53.752 0 97.482-43.731 97.482-97.483s-43.73-97.482-97.482-97.482-97.482 43.73-97.482 97.482c-.001 53.752 43.73 97.483 97.482 97.483zm0-174.965c42.724 0 77.482 34.758 77.482 77.482 0 42.725-34.759 77.483-77.482 77.483-42.724 0-77.482-34.759-77.482-77.483-.001-42.724 34.757-77.482 77.482-77.482z"/><path d="M235.671 320.435c1.953 1.953 4.512 2.929 7.071 2.929s5.119-.977 7.071-2.929l53.032-53.033c3.905-3.905 3.905-10.237 0-14.142-3.906-3.904-10.236-3.905-14.143 0l-45.961 45.962-19.446-19.445c-3.905-3.904-10.237-3.905-14.142 0-3.905 3.905-3.905 10.237.001 14.142l26.517 26.516zM124.792 402.453c5.508 0 10-4.492 10-10s-4.492-10-10-10-10 4.492-10 10 4.492 10 10 10zM387.21 155.239c-5.508 0-10 4.492-10 10s4.492 10 10 10c5.507 0 10-4.492 10-10s-4.494-10-10-10z"/></g></svg><svg viewBox="0 0 485 485" id="digg" xmlns="http://www.w3.org/2000/svg"><path d="M400 186.508h-83.996v111.984h56.004v24.512h-56.004V354.5H400zm-27.992 83.996H347.5v-56.008h24.508zm0 0M308.996 186.508H225v111.984h52.5v24.512H225V354.5h83.996zM277.5 270.504h-21.004v-56.008H277.5zm0 0M179.508 130.504h31.496v31.492h-31.496zm0 0M179.508 186.508h31.496v111.984h-31.496zm0 0M172.5 130.504h-31.496v56.004H85v111.984h87.5zm-31.496 140h-24.508v-56.008h24.508zm0 0"/><path d="M0 0v485h485V0zm455 455H30V30h425zm0 0"/></svg><svg viewBox="0 0 151.045 151.045" id="group-of-men" xmlns="http://www.w3.org/2000/svg"><path d="M151.042 109.495c0-11.42-8.16-21.158-19.566-24.912 1.8-2.172 3.196-4.724 4.101-7.179 1.546-.927 2.759-2.598 3.242-4.542.44-1.768 1.414-5.64-.666-7.752v-1.739c.086-2.985.322-10.744-6.138-14.097-.168-.623-.211-1.113-.222-1.217l-.816-8.296-5.948 5.612c-.698.537-4.656 1.51-8.382 1.886l-1.528.236c-11.374 1.789-11.191 8.353-11.048 13.635.021.673.043 1.385.043 2.183l.05 1.564c-1.145 1.263-1.958 3.579-.902 7.891.483 1.929 1.725 3.593 3.242 4.413.701 1.8 2.09 4.771 4.252 7.423-4.824 1.585-9.054 4.245-12.336 7.655-3.06-1.958-6.456-3.514-10.085-4.642 2.684-3.049 4.713-6.782 6.005-10.329 2.011-1.131 3.607-3.285 4.252-5.823.569-2.301 1.847-7.401-.909-9.953v-2.609c.183-6.138-.49-14.638-8.124-18.424-.315-1.063-.372-1.893-.379-1.986l-.973-9.878-7.093 6.682c-.845.769-6.274 2.133-11.499 2.656l-2.044.322c-14.691 2.312-14.469 10.443-14.262 17.93.025.82.047 1.671.047 2.62l.072 2.337c-1.503 1.51-2.63 4.445-1.231 10.171.623 2.509 2.265 4.66 4.234 5.633.966 2.498 2.985 6.929 6.249 10.661a41.176 41.176 0 00-10.067 4.627c-3.293-3.425-7.541-6.08-12.376-7.669 1.797-2.18 3.192-4.724 4.101-7.186 1.56-.923 2.745-2.57 3.246-4.549.44-1.768 1.403-5.633-.666-7.745v-1.739c.086-2.985.319-10.744-6.141-14.097-.168-.623-.208-1.113-.218-1.217l-.82-8.296-5.948 5.612c-.698.537-4.66 1.51-8.382 1.886l-1.525.236c-11.377 1.789-11.191 8.353-11.048 13.632.021.673.039 1.385.039 2.187l.05 1.56c-1.145 1.26-1.954 3.579-.898 7.891.48 1.929 1.725 3.593 3.239 4.416.705 1.793 2.094 4.771 4.252 7.415C8.142 88.362 0 98.086 0 109.491v1.789h37.599c-.934 2.985-1.474 6.109-1.474 9.359v1.789h78.792v-1.789c0-3.25-.537-6.374-1.474-9.359h37.603v-1.786h-.004zm-14.18-1.789v-5.01c0-.984-.805-1.789-1.789-1.789s-1.789.805-1.789 1.789v5.01h-21.201a32.83 32.83 0 00-3.196-5.551c-.193-.279-.369-.565-.565-.83-1.95-2.602-4.298-4.942-6.939-6.989a25.442 25.442 0 015.733-4.277l12.701 14.419c.344.383.827.608 1.342.608.565-.029 1.02-.222 1.364-.63l12.429-14.527c6.954 3.761 11.774 10.261 12.444 17.776l-10.534.001zm-25.585 11.148H95.942v-7.312c0-.089-.036-.168-.054-.258-.129-.859-.834-1.532-1.736-1.532-.895 0-1.607.673-1.736 1.532-.011.089-.054.168-.054.258v7.312H58.661v-7.312c0-.089-.039-.168-.054-.258-.129-.859-.837-1.532-1.736-1.532s-1.61.673-1.739 1.532c-.011.089-.05.168-.05.258v7.312H39.75c.168-2.627.744-5.15 1.61-7.569.215-.601.433-1.202.691-1.789h.054l-.018-.075a32.53 32.53 0 01.816-1.714 30.51 30.51 0 012.702-4.255c1.789-2.384 3.933-4.531 6.374-6.403.476-.365.938-.734 1.435-1.084.487-.336 1.002-.637 1.507-.945a33.226 33.226 0 011.965-1.138L74.19 113.53c.34.383.827.601 1.342.601h.011c.523 0 1.009-.229 1.349-.623l16.935-19.787c.784.404 1.539.837 2.28 1.299.508.308 1.02.608 1.51.945.497.351.963.719 1.432 1.084a33.179 33.179 0 016.37 6.403c1.016 1.364 1.933 2.766 2.706 4.255.29.558.558 1.131.816 1.714-.007.036-.014.057-.014.075h.054c.254.587.476 1.188.687 1.789.861 2.419 1.434 4.942 1.609 7.569zm-95.33-17.948c-.988 0-1.789.798-1.789 1.789v5.01H3.643c.659-7.43 5.372-13.875 12.2-17.658l12.712 14.419c.34.383.827.608 1.342.608.372-.029 1.016-.222 1.36-.63l12.426-14.527c2.23 1.21 4.241 2.691 5.962 4.402-2.641 2.047-4.992 4.391-6.939 6.989-.204.265-.376.551-.573.83a33.49 33.49 0 00-3.192 5.551H17.74v-5.01a1.784 1.784 0 00-1.793-1.773zm2.087-26.512l-.859-.258c-.601-.183-1.403-1.07-1.689-2.23-.712-2.92-.351-4.37.225-4.753l.83-.551-.104-3.343c0-.784-.018-1.532-.039-2.23-.147-5.243-.24-8.697 8.027-9.996l1.421-.229c.082-.007 8.274-.841 10.357-2.799l.673-.641.097.998c.025.329.14 1.503.648 2.831l.268.705.691.301c3.504 1.517 4.924 4.824 4.735 11.119v3.697l.913.519c.2.111.777.762-.143 4.452-.293 1.16-1.038 2.14-1.9 2.494l-.755.308-.258.777c-.948 2.795-2.609 5.816-4.842 7.988a11.787 11.787 0 01-1.879 1.503c-1.299.837-2.738 1.378-4.313 1.424-.039 0-.075.014-.111.014-.05 0-.097-.007-.15-.007-.047 0-.086.007-.132.007-.132 0-.247-.057-.376-.064a8.464 8.464 0 01-4.148-1.371 12.081 12.081 0 01-1.854-1.503c-2.799-2.756-4.434-6.696-5.028-8.332l-.305-.83zm14.53 23.029L31 91.279l1.882-1.621c1.621-.44 3.099-1.217 4.427-2.23 1.024.265 2.011.594 2.978.966l-7.723 9.029zm-6.07-7.834l1.972 1.693-1.514 5.955-7.709-8.75a27.759 27.759 0 013.164-1.041c1.203.927 2.559 1.675 4.087 2.143zm32.697-15.424l-.859-.258c-.959-.293-2.222-1.582-2.677-3.418-.888-3.629-.68-6.188.558-7.004l.827-.548-.122-4.159c0-.931-.025-1.818-.054-2.97-.197-7.068-.34-12.157 11.252-13.983l1.943-.308c.107-.018 10.898-1.145 13.496-3.604l1.804-1.693.247 2.573c.025.293.154 1.857.83 3.633l.268.701.687.301c6.224 2.691 6.882 9.287 6.7 15.432v4.599l.916.523c1.016.573 1.056 2.802.093 6.632-.437 1.729-1.575 3.207-2.906 3.754l-.755.308-.258.777c-1.321 3.919-3.686 8.163-6.871 11.162a17.05 17.05 0 01-1.797 1.474 13.58 13.58 0 01-2.613 1.453c-1.092.455-2.23.748-3.436.852-.329.029-.633.125-.97.125-.476 0-.934-.057-1.389-.104a11.82 11.82 0 01-3.157-.852 13.675 13.675 0 01-2.566-1.46 17.8 17.8 0 01-1.789-1.467c-3.987-3.797-6.284-9.33-7.111-11.61l-.291-.861zm20.091 31.046l-2.276-8.947 3.167-2.713-.211-.183c1.95-.623 3.74-1.621 5.361-2.895a37.625 37.625 0 015.125 1.686l-11.166 13.052zm-8.528-11.925l-.304.265 3.16 2.713-2.205 8.689-11.151-12.658a41.284 41.284 0 015.404-1.811c1.506 1.195 3.206 2.172 5.096 2.802zm38.541-18.892l-.859-.258c-.605-.19-1.406-1.07-1.693-2.23-.712-2.92-.351-4.37.222-4.753l.83-.551-.104-3.343c0-.784-.018-1.532-.039-2.237-.143-5.236-.233-8.689 8.027-9.989l1.424-.229c.075-.007 8.267-.841 10.35-2.799l.673-.641.097.998c.025.329.14 1.496.644 2.831l.268.705.694.301c3.504 1.517 4.924 4.824 4.731 11.119v3.697l.916.519c.2.111.78.762-.147 4.452-.293 1.16-1.034 2.14-1.897 2.494l-.755.308-.258.777c-.948 2.795-2.609 5.816-4.842 7.988a11.968 11.968 0 01-1.879 1.503c-1.299.837-2.741 1.378-4.313 1.424l.021.021c-.043 0-.082-.007-.125-.007-.057 0-.1-.007-.154-.007-.047 0-.086.007-.132.007-.132 0-.247-.057-.376-.064a8.495 8.495 0 01-4.151-1.371 12.147 12.147 0 01-1.85-1.503c-2.802-2.756-4.434-6.696-5.028-8.332l-.295-.83zm14.522 23.029l-1.564-6.145 1.882-1.621c1.621-.447 3.096-1.217 4.431-2.23 1.016.265 2.011.594 2.97.966l-7.719 9.03zm-6.062-7.834l1.968 1.693-1.514 5.955-7.709-8.75a27.759 27.759 0 013.164-1.041c1.199.927 2.563 1.682 4.091 2.143z" fill="#969696"/></svg><svg viewBox="0 0 512 512" id="idea" xmlns="http://www.w3.org/2000/svg"><path d="M256 152.535h-14.031v8.05c0 1.531.623 2.919 1.644 3.94 1.02 1.021 2.438 1.672 3.969 1.672h16.866c1.53 0 2.92-.652 3.94-1.672 1.021-1.02 1.672-2.409 1.672-3.94v-8.05zm200.806 181.957l-37.53-12.728-24.463 11.991v11.31c0 8.504 3.487 16.272 9.128 21.884 5.612 5.612 13.351 9.099 21.883 9.099 8.504 0 16.271-3.487 21.884-9.099 5.612-5.613 9.099-13.38 9.099-21.884v-10.573zm-61.994-17.377l20.239-9.892a7.375 7.375 0 016.151-.595l35.603 12.047v-14.854c0-3.855-1.587-7.37-4.138-9.921a13.903 13.903 0 00-9.894-4.139h-33.902c-3.854 0-7.369 1.587-9.921 4.139-2.552 2.551-4.139 6.066-4.139 9.921v13.294zm-339.619-8.39h61.994v-18.964H69.254c-3.855 0-7.37 1.587-9.922 4.139-2.551 2.551-4.139 6.066-4.139 9.921zm61.995 15.024H55.193v21.316c0 8.504 3.487 16.272 9.128 21.884 5.612 5.612 13.352 9.099 21.884 9.099 8.504 0 16.271-3.487 21.883-9.099 5.612-5.613 9.1-13.38 9.1-21.884zm169.823 10.006c-10.318 1.418-26.787 1.105-40.563-10.885-4.847 2.778-12.359 5.811-21.43 5.159v17.036c0 8.504 3.486 16.272 9.099 21.884 5.642 5.612 13.38 9.099 21.884 9.099 8.532 0 16.271-3.487 21.884-9.099 5.641-5.613 9.127-13.38 9.127-21.884v-11.31zm-61.993-20.75c6.321.822 12.643-1.361 17.433-5.471 3.118-2.721 7.824-2.381 10.545.737 10.971 12.643 26.221 11.877 34.016 10.403V303.82c0-3.855-1.587-7.37-4.139-9.921-2.551-2.551-6.065-4.139-9.921-4.139H239.05c-3.855 0-7.342 1.587-9.893 4.139-2.552 2.551-4.139 6.066-4.139 9.921zm-92.835 32.06a45.715 45.715 0 01-7.852 25.654c10.375.992 19.7 5.669 26.702 12.643 7.936 7.937 12.841 18.907 12.841 30.955v90.199a7.476 7.476 0 01-7.483 7.484H16.019c-4.139 0-7.512-3.345-7.512-7.484v-28.12c0-4.139 3.373-7.483 7.512-7.483s7.484 3.345 7.484 7.483v20.608h14.428V428.32c0-4.167 3.373-7.512 7.512-7.512s7.512 3.345 7.512 7.512v68.684h66.501V428.32a7.489 7.489 0 017.512-7.512c4.139 0 7.483 3.345 7.483 7.512v68.684h14.429v-82.688c0-7.909-3.231-15.109-8.447-20.353-5.244-5.216-12.444-8.447-20.352-8.447h-12.02a45.97 45.97 0 01-21.854 5.527 45.893 45.893 0 01-21.855-5.527H52.331c-7.938 0-15.138 3.231-20.354 8.447-5.215 5.244-8.475 12.444-8.475 20.353v28.12a7.477 7.477 0 01-7.484 7.484c-4.139 0-7.512-3.345-7.512-7.484v-28.12c0-12.048 4.933-23.018 12.869-30.955 7.002-6.974 16.328-11.65 26.703-12.643-4.961-7.342-7.881-16.186-7.881-25.654V303.819c0-8.022 3.26-15.278 8.532-20.522 5.272-5.273 12.529-8.533 20.523-8.533h55.445a7.476 7.476 0 017.483 7.484v62.817zm339.619 0a45.715 45.715 0 01-7.852 25.654c10.374.992 19.7 5.669 26.701 12.643 7.938 7.937 12.842 18.907 12.842 30.955v90.199A7.477 7.477 0 01496.01 512H355.638c-4.139 0-7.512-3.345-7.512-7.484v-28.12c0-4.139 3.373-7.483 7.512-7.483s7.483 3.345 7.483 7.483v20.608h14.429V428.32c0-4.167 3.373-7.512 7.512-7.512s7.512 3.345 7.512 7.512v68.684h66.501V428.32a7.489 7.489 0 017.512-7.512c4.139 0 7.483 3.345 7.483 7.512v68.684h14.428v-82.688c0-7.909-3.23-15.109-8.447-20.353-5.244-5.216-12.443-8.447-20.352-8.447h-12.02a45.97 45.97 0 01-21.855 5.527 45.892 45.892 0 01-21.854-5.527h-12.02c-7.938 0-15.138 3.231-20.353 8.447-5.216 5.244-8.476 12.444-8.476 20.353v28.12c0 4.139-3.345 7.484-7.483 7.484s-7.512-3.345-7.512-7.484v-28.12c0-12.048 4.933-23.018 12.869-30.955 7.002-6.974 16.328-11.65 26.703-12.643-4.961-7.342-7.881-16.186-7.881-25.654v-41.245c0-8.022 3.26-15.278 8.532-20.522 5.272-5.273 12.529-8.533 20.522-8.533h33.902c7.994 0 15.251 3.26 20.523 8.533a28.992 28.992 0 018.504 20.522v41.246zm-169.795 0c0 9.468-2.92 18.312-7.853 25.654 10.347.992 19.7 5.669 26.674 12.643 7.938 7.937 12.87 18.907 12.87 30.955v90.199c0 4.139-3.346 7.484-7.513 7.484H185.814a7.476 7.476 0 01-7.483-7.484v-28.12c0-4.139 3.345-7.483 7.483-7.483s7.512 3.345 7.512 7.483v20.608h14.429V428.32c0-4.167 3.344-7.512 7.482-7.512a7.488 7.488 0 017.512 7.512v68.684h66.529V428.32c0-4.167 3.346-7.512 7.484-7.512s7.512 3.345 7.512 7.512v68.684h14.428v-82.688c0-7.909-3.26-15.109-8.475-20.353-5.216-5.216-12.415-8.447-20.324-8.447h-12.048a45.88 45.88 0 01-21.854 5.527 45.789 45.789 0 01-21.827-5.527h-12.047c-7.908 0-15.108 3.231-20.324 8.447-5.244 5.244-8.476 12.444-8.476 20.353v28.12c0 4.139-3.374 7.484-7.512 7.484a7.476 7.476 0 01-7.483-7.484v-28.12c0-12.048 4.903-23.018 12.841-30.955 7.001-6.974 16.327-11.65 26.702-12.643a45.707 45.707 0 01-7.851-25.654v-41.245c0-8.022 3.26-15.278 8.504-20.522 5.271-5.273 12.529-8.533 20.522-8.533h33.902c7.993 0 15.278 3.26 20.522 8.533 5.273 5.244 8.533 12.5 8.533 20.522zM140.658 198.456h88.526c2.977 0 5.527 1.729 6.746 4.224l20.069 34.782c6.774-11.764 13.578-23.499 20.353-35.235 1.332-2.324 3.799-3.77 6.463-3.77h88.753c2.211 0 4.195.964 5.585 2.495l36.935 35.575 4.167-35.745a7.515 7.515 0 015.641-6.435c18.822-5.869 35.122-17.689 46.631-33.223 11.281-15.223 17.971-34.073 17.971-54.398 0-25.229-10.317-48.133-26.929-64.772-16.64-16.64-39.571-26.958-64.8-26.958H115.231c-25.229 0-48.133 10.318-64.771 26.958-16.64 16.639-26.957 39.572-26.957 64.772 0 20.325 6.69 39.175 17.971 54.398 11.594 15.647 28.035 27.524 47.027 33.364 3.175.964 4.932 3.515 5.301 6.689l4.11 35.349 37.36-35.972c1.446-1.389 3.43-2.098 5.386-2.098zm84.218 14.996h-81.44l-45.752 44.079a7.37 7.37 0 01-4.62 2.296c-4.11.482-7.823-2.466-8.277-6.576l-5.357-46.035c-20.098-7.229-37.474-20.325-49.975-37.191-13.152-17.773-20.948-39.686-20.948-63.299 0-29.367 12.02-56.041 31.352-75.373C59.19 12.019 85.864 0 115.231 0h281.537c29.367 0 56.041 12.019 75.401 31.352 19.333 19.332 31.323 46.007 31.323 75.373 0 23.613-7.796 45.525-20.948 63.299-12.501 16.866-29.849 29.962-49.946 37.191l-5.357 45.922c-.199 1.644-.879 3.232-2.069 4.45-2.863 2.977-7.597 3.061-10.573.198l-46.035-44.334h-81.44c-8.221 14.23-16.412 28.46-24.633 42.69a7.672 7.672 0 01-2.75 2.721c-3.6 2.069-8.163.822-10.204-2.749-8.221-14.23-16.441-28.431-24.661-42.661zm2.125-68.997c-.197-8.532-4.649-15.307-9.297-22.365-6.52-9.893-13.323-20.211-13.323-36.822 0-14.258 5.783-27.157 15.138-36.482 9.325-9.354 22.252-15.137 36.481-15.137 14.259 0 27.155 5.783 36.511 15.137 9.325 9.326 15.108 22.224 15.108 36.482 0 16.611-6.804 26.929-13.295 36.822-4.648 7.058-9.099 13.833-9.298 22.365l.029 16.13a20.462 20.462 0 01-6.066 14.542 20.458 20.458 0 01-14.542 6.066h-16.866c-5.669 0-10.828-2.325-14.57-6.066a20.435 20.435 0 01-6.037-14.542zm14.287-6.945h29.452c1.644-9.297 6.293-16.328 11.112-23.641 5.243-7.995 10.771-16.385 10.771-28.602 0-10.12-4.11-19.276-10.715-25.881-6.633-6.633-15.788-10.743-25.908-10.743-10.091 0-19.247 4.11-25.88 10.744-6.634 6.605-10.715 15.761-10.715 25.881 0 12.217 5.498 20.607 10.771 28.602 4.791 7.313 9.44 14.343 11.112 23.64z"/></svg><svg viewBox="0 0 24 24" id="international" xmlns="http://www.w3.org/2000/svg"><path d="M18 10c-.3 0-.5-.2-.5-.5v-1c0-.3.2-.5.5-.5s.5.2.5.5v1c0 .3-.2.5-.5.5z"/><path d="M18.2 9h-1.8c-.2 0-.4-.2-.4-.5s.2-.5.5-.5h1.8c.4 0 .7-.3.7-.8s-.3-.8-.8-.8h-.5c-1 0-1.8-.8-1.8-1.8S16.8 3 17.8 3h1.8c.2 0 .4.2.4.5s-.2.5-.5.5h-1.8c-.4 0-.7.3-.7.8s.3.8.8.8h.5c1 0 1.8.8 1.8 1.8S19.2 9 18.2 9z"/><path d="M18 4c-.3 0-.5-.2-.5-.5v-1c0-.3.2-.5.5-.5s.5.2.5.5v1c0 .3-.2.5-.5.5z"/><path d="M18 12c-3.3 0-6-2.7-6-6s2.7-6 6-6 6 2.7 6 6-2.7 6-6 6zm0-11c-2.8 0-5 2.2-5 5s2.2 5 5 5 5-2.2 5-5-2.2-5-5-5z"/><path d="M11 24h-.4c-3.1-.1-6.1-1.5-8.1-4C.9 18 0 15.5 0 13s.9-5.1 2.5-7c2-2.4 4.7-3.8 7.7-4 .3 0 .5.2.5.5s-.2.5-.5.5c-2.7.2-5.2 1.5-7 3.6C1.8 8.4 1 10.6 1 13s.8 4.6 2.3 6.4c1.8 2.2 4.5 3.5 7.4 3.6h.6c2.9-.1 5.6-1.4 7.4-3.6 1.3-1.6 2.1-3.6 2.3-5.7 0-.3.3-.5.5-.5.3 0 .5.3.5.5-.2 2.3-1 4.5-2.5 6.2-2 2.4-5 3.9-8.1 4-.2.1-.3.1-.4.1z"/><path d="M9.9 9c-.1 0-.1 0 0 0-1.7-.2-3.2-.5-4.6-1-.9-.4-1.8-.8-2.6-1.3-.3-.1-.3-.4-.2-.7.1-.2.5-.3.7-.1.7.5 1.6.9 2.4 1.2 1.4.4 2.8.8 4.3.9.3 0 .5.3.5.5-.1.3-.3.5-.5.5zM19.1 20.2c-.1 0-.2 0-.3-.1-.7-.5-1.6-.9-2.4-1.2-3.4-1.3-7.3-1.3-10.7 0-.9.3-1.7.7-2.4 1.2-.3.2-.7.1-.8-.1s-.1-.5.2-.7c.8-.5 1.7-.9 2.6-1.3 3.6-1.3 7.8-1.3 11.4 0 .9.3 1.8.8 2.6 1.3.2.1.3.5.2.7-.1.1-.3.2-.4.2z"/><path d="M11 24h-.4c-2.3-.2-4.4-2.2-5.6-5.3C4.3 17 4 15 4 13s.3-4 1-5.7C6.1 4.4 8 2.5 10.1 2c.3-.1.5.1.6.4s-.1.5-.4.6c-1.8.4-3.4 2.1-4.4 4.7C5.3 9.3 5 11.1 5 13s.3 3.7.9 5.3c1 2.8 2.8 4.5 4.8 4.7h.6c1.9-.2 3.7-1.9 4.8-4.7.5-1.2.7-2.5.9-3.9 0-.3.3-.5.5-.5.3 0 .5.3.5.5-.1 1.5-.4 2.9-.9 4.1-1.2 3.1-3.3 5.1-5.6 5.3-.3.2-.4.2-.5.2z"/><path d="M11 24c-.3 0-.5-.2-.5-.5V10.8c0-.3.2-.5.5-.5s.5.2.5.5v12.7c0 .3-.2.5-.5.5z"/><path d="M13.2 13.5H.5c-.3 0-.5-.2-.5-.5s.2-.5.5-.5h12.7c.3 0 .5.2.5.5s-.2.5-.5.5z"/></svg><svg viewBox="0 0 512 512" id="office-building" xmlns="http://www.w3.org/2000/svg"><path d="M485.344 458.604h-7.501v-230.62c0-10.483-8.529-19.012-19.013-19.012H322.74V25.528c0-14.03-11.415-25.445-25.445-25.445H59.603c-14.03 0-25.445 11.415-25.445 25.445v433.075h-7.501C11.958 458.604 0 470.562 0 485.261c0 14.698 11.958 26.656 26.656 26.656h458.688c14.698 0 26.656-11.958 26.656-26.656 0-14.699-11.958-26.657-26.656-26.657zM49.157 25.528c0-5.76 4.686-10.445 10.445-10.445h237.692c5.76 0 10.445 4.686 10.445 10.445v183.444h-64.021c-10.484 0-19.014 8.528-19.014 19.012v172.483c0 4.143 3.357 7.5 7.5 7.5s7.5-3.357 7.5-7.5V227.984a4.018 4.018 0 014.014-4.012H458.83c2.213 0 4.013 1.8 4.013 4.012v230.619H239.705V435.53c0-4.143-3.357-7.5-7.5-7.5s-7.5 3.357-7.5 7.5v23.073H49.157zm436.187 471.389H26.656c-6.428 0-11.656-5.229-11.656-11.656s5.229-11.657 11.656-11.657h458.688c6.428 0 11.656 5.229 11.656 11.657s-5.229 11.656-11.656 11.656z"/><path d="M117.329 45.787H86.558c-8.195 0-14.862 6.667-14.862 14.862V91.42c0 8.195 6.667 14.862 14.862 14.862h30.771c8.195 0 14.862-6.667 14.862-14.862V60.649c0-8.195-6.667-14.862-14.862-14.862zm-.138 45.496H86.695V60.787h30.496zM193.835 45.787h-30.772c-8.194 0-14.861 6.667-14.861 14.862V91.42c0 8.195 6.667 14.862 14.861 14.862h30.772c8.195 0 14.862-6.667 14.862-14.862V60.649c0-8.195-6.667-14.862-14.862-14.862zm-.138 45.496h-30.496V60.787h30.496zM239.567 106.283h30.772c8.195 0 14.862-6.667 14.862-14.862V60.649c0-8.195-6.667-14.862-14.862-14.862h-30.772c-8.195 0-14.862 6.667-14.862 14.862V91.42c0 8.196 6.667 14.863 14.862 14.863zm.138-45.496h30.497v30.496h-30.497zM117.329 139.412H86.558c-8.195 0-14.862 6.667-14.862 14.862v30.771c0 8.195 6.667 14.862 14.862 14.862h30.771c8.195 0 14.862-6.667 14.862-14.862v-30.771c0-8.195-6.667-14.862-14.862-14.862zm-.138 45.496H86.695v-30.496h30.496zM193.835 139.412h-30.772c-8.194 0-14.861 6.667-14.861 14.862v30.771c0 8.195 6.667 14.862 14.861 14.862h30.772c8.195 0 14.862-6.667 14.862-14.862v-30.771c0-8.195-6.667-14.862-14.862-14.862zm-.138 45.496h-30.496v-30.496h30.496zM239.567 199.908h30.772c8.195 0 14.862-6.667 14.862-14.862v-30.771c0-8.195-6.667-14.862-14.862-14.862h-30.772c-8.195 0-14.862 6.667-14.862 14.862v30.771c0 8.195 6.667 14.862 14.862 14.862zm.138-45.496h30.497v30.496h-30.497zM117.329 233.036H86.558c-8.195 0-14.862 6.667-14.862 14.862v30.771c0 8.195 6.667 14.862 14.862 14.862h30.771c8.195 0 14.862-6.667 14.862-14.862v-30.771c0-8.195-6.667-14.862-14.862-14.862zm-.138 45.496H86.695v-30.496h30.496zM193.835 233.036h-30.772c-8.194 0-14.861 6.667-14.861 14.862v30.771c0 8.195 6.667 14.862 14.861 14.862h30.772c8.195 0 14.862-6.667 14.862-14.862v-30.771c0-8.195-6.667-14.862-14.862-14.862zm-.138 45.496h-30.496v-30.496h30.496zM117.329 326.661H86.558c-8.195 0-14.862 6.667-14.862 14.861v30.772c0 8.195 6.667 14.862 14.862 14.862h30.771c8.195 0 14.862-6.667 14.862-14.862v-30.772c0-8.194-6.667-14.861-14.862-14.861zm-.138 45.496H86.695v-30.496h30.496zM193.835 326.661h-30.772c-8.194 0-14.861 6.667-14.861 14.861v30.772c0 8.195 6.667 14.862 14.861 14.862h30.772c8.195 0 14.862-6.667 14.862-14.862v-30.772c0-8.194-6.667-14.861-14.862-14.861zm-.138 45.496h-30.496v-30.496h30.496zM270.159 302.88H299.3c7.067 0 12.816-5.749 12.816-12.815v-28.401c0-7.067-5.749-12.816-12.816-12.816h-29.141c-7.067 0-12.816 5.749-12.816 12.816v28.401c0 7.066 5.749 12.815 12.816 12.815zm2.184-39.033h24.773v24.033h-24.773zM270.159 364.189H299.3c7.067 0 12.816-5.749 12.816-12.816v-28.4c0-7.067-5.749-12.816-12.816-12.816h-29.141c-7.067 0-12.816 5.749-12.816 12.816v28.4c0 7.067 5.749 12.816 12.816 12.816zm2.184-39.033h24.773v24.033h-24.773zM270.159 425.499H299.3c7.067 0 12.816-5.749 12.816-12.816v-28.401c0-7.067-5.749-12.816-12.816-12.816h-29.141c-7.067 0-12.816 5.749-12.816 12.816v28.401c0 7.067 5.749 12.816 12.816 12.816zm2.184-39.034h24.773v24.034h-24.773zM336.703 302.88h29.142c7.067 0 12.816-5.749 12.816-12.815v-28.401c0-7.067-5.749-12.816-12.816-12.816h-29.142c-7.067 0-12.816 5.749-12.816 12.816v28.401c0 7.066 5.749 12.815 12.816 12.815zm2.184-39.033h24.774v24.033h-24.774zM336.703 364.189h29.142c7.067 0 12.816-5.749 12.816-12.816v-28.4c0-7.067-5.749-12.816-12.816-12.816h-29.142c-7.067 0-12.816 5.749-12.816 12.816v28.4c0 7.067 5.749 12.816 12.816 12.816zm2.184-39.033h24.774v24.033h-24.774zM336.703 425.499h29.142c7.067 0 12.816-5.749 12.816-12.816v-28.401c0-7.067-5.749-12.816-12.816-12.816h-29.142c-7.067 0-12.816 5.749-12.816 12.816v28.401c0 7.067 5.749 12.816 12.816 12.816zm2.184-39.034h24.774v24.034h-24.774zM403.248 302.88h29.142c7.067 0 12.816-5.749 12.816-12.815v-28.401c0-7.067-5.749-12.816-12.816-12.816h-29.142c-7.067 0-12.816 5.749-12.816 12.816v28.401c0 7.066 5.749 12.815 12.816 12.815zm2.184-39.033h24.774v24.033h-24.774zM403.248 364.189h29.142c7.067 0 12.816-5.749 12.816-12.816v-28.4c0-7.067-5.749-12.816-12.816-12.816h-29.142c-7.067 0-12.816 5.749-12.816 12.816v28.4c0 7.067 5.749 12.816 12.816 12.816zm2.184-39.033h24.774v24.033h-24.774zM403.248 425.499h29.142c7.067 0 12.816-5.749 12.816-12.816v-28.401c0-7.067-5.749-12.816-12.816-12.816h-29.142c-7.067 0-12.816 5.749-12.816 12.816v28.401c0 7.067 5.749 12.816 12.816 12.816zm2.184-39.034h24.774v24.034h-24.774zM409.222 173.787a14.531 14.531 0 0017.195 0c12.97-9.473 44.086-35.442 52.868-71.912a7.5 7.5 0 00-14.584-3.512c-7.762 32.233-37.515 56.248-46.882 63.128-11.785-8.652-48.787-39.035-48.787-78.903 0-26.901 21.886-48.787 48.786-48.787 21.132 0 39.761 13.476 46.356 33.532a7.5 7.5 0 0014.25-4.686C469.799 36.42 445.444 18.8 417.818 18.8c-35.172 0-63.786 28.615-63.786 63.787 0 47.223 42.242 81.744 55.19 91.2z"/><path d="M417.818 47.112c-19.561 0-35.475 15.914-35.475 35.476s15.914 35.476 35.475 35.476c19.562 0 35.476-15.914 35.476-35.476s-15.914-35.476-35.476-35.476zm0 55.951c-11.29 0-20.475-9.186-20.475-20.476s9.185-20.476 20.475-20.476 20.476 9.186 20.476 20.476-9.186 20.476-20.476 20.476z"/></svg><svg viewBox="0 0 512 512" id="operator" xmlns="http://www.w3.org/2000/svg"><path d="M511.996 489.445a44.928 44.928 0 00-27.379-41.394L357.07 393.785V363.27c11.778-17.38 19.184-37.946 20.653-60.11h15.324c30.324 0 55-24.676 55-55v-44.512c0-25.902-18.008-47.664-42.152-53.468-1.094-44.168-11.086-77.735-30.454-102.422C350.578 16.066 310.395 0 256 0s-94.578 16.066-119.441 47.762c-19.371 24.683-29.36 58.25-30.454 102.418-24.148 5.804-42.152 27.566-42.152 53.468v44.512c0 30.324 24.676 55 55 55h15.324c1.47 22.164 8.875 42.73 20.653 60.11v30.515L27.383 448.051a44.928 44.928 0 00-27.38 41.398L0 496.992c0 3.98 1.578 7.797 4.395 10.61A14.996 14.996 0 0015 511.996h482c3.98 0 7.797-1.582 10.61-4.394a15.015 15.015 0 004.39-10.61zm-184.91-85.136c.012.359.852 36.765-20.652 59.16-11.809 12.293-28.778 18.523-50.434 18.523-21.578 0-38.504-6.187-50.305-18.39-21.761-22.512-20.789-58.977-20.78-59.293.007-.176.01-.352.01-.528 0-.062.005-.125.005-.191v-9.477c20.023 14.407 44.574 22.899 71.07 22.899s51.047-8.496 71.07-22.899v9.48c0 .06.004.122.004.184 0 .176.004.352.012.532zm20.96-209.215c-.019.3-.046.601-.046.91v84.16l-28.488 18.996A54.824 54.824 0 01289 308.398h-25.371c-8.281 0-15 6.715-15 15 0 8.286 6.719 15 15 15H289a84.713 84.713 0 0047.156-14.28l8.883-5.923c-10.3 39.543-46.316 68.82-89.039 68.82-50.73 0-92-41.273-92-92v-99.011c0-.313-.027-.613-.047-.918v-20.52c.02-.304.047-.605.047-.918 0-25.804 6.246-42.851 18.566-50.66 20.07-12.726 55.172-1.023 66.98 4.551a15.05 15.05 0 0012.88.012c11.836-5.582 46.933-17.285 67.008-4.563 12.32 7.809 18.566 24.856 18.566 50.66 0 .309.027.61.047.91zm70 8.554v44.512c0 13.785-11.214 25-25 25h-15v-94.512h15c13.786 0 25 11.215 25 25zM256 30c79.434 0 116.738 36.305 119.79 117.316-4.196-22.937-14.364-39.613-30.395-49.73-31.036-19.59-73.348-6.195-89.395.117-16.047-6.312-58.36-19.707-89.395-.117-16.03 10.117-26.199 26.793-30.394 49.73C139.26 66.305 176.566 30 256 30zM133.953 273.16h-15c-13.785 0-25-11.215-25-25v-44.512c0-13.785 11.215-25 25-25h15zM39.13 475.656l117.52-50c2.632 16.278 9.171 38.426 25.203 56.34H31.984a14.966 14.966 0 017.145-6.34zm291.02 6.34c16.03-17.914 22.57-40.062 25.203-56.34l117.52 50a14.984 14.984 0 017.144 6.34zm0 0"/></svg><svg viewBox="0 0 512 512" id="packages" xmlns="http://www.w3.org/2000/svg"><path d="M498.942 353.018H429.19V238.274c0-4.143-3.357-7.5-7.5-7.5s-7.5 3.357-7.5 7.5v114.744H283.867v-32.5c0-4.143-3.357-7.5-7.5-7.5h-75.311V134.229h85.179v30.854c0 6.604 5.372 11.976 11.976 11.976h18.824c6.604 0 11.977-5.372 11.977-11.976v-30.854h85.179v74.059c0 4.143 3.357 7.5 7.5 7.5s7.5-3.357 7.5-7.5v-76c0-7.2-5.858-13.059-13.059-13.059H258.277V13.251c0-7.2-5.858-13.059-13.059-13.059h-137.75c-7.201 0-13.059 5.858-13.059 13.059v47.416c0 4.143 3.358 7.5 7.5 7.5s7.5-3.357 7.5-7.5V15.192h45.545v30.854c0 6.604 5.372 11.976 11.976 11.976h18.825c6.604 0 11.976-5.372 11.976-11.976V15.192h45.545v104.037h-49.719a7.5 7.5 0 00-7.5 7.5v62.5H109.41V90.653c0-4.143-3.358-7.5-7.5-7.5s-7.5 3.357-7.5 7.5v98.577H50.248c-7.201 0-13.059 5.857-13.059 13.058v110.73H13.058c-7.2 0-13.058 5.858-13.058 13.059v178.23a7.5 7.5 0 007.5 7.5h79.416c4.142 0 7.5-3.357 7.5-7.5s-3.358-7.5-7.5-7.5H15V328.018h105.545v30.853c0 6.604 5.373 11.977 11.976 11.977h18.824c6.604 0 11.976-5.373 11.976-11.977v-30.853h105.545v168.789H116.902c-4.142 0-7.5 3.357-7.5 7.5s3.358 7.5 7.5 7.5h387.597c4.143 0 7.5-3.357 7.5-7.5v-138.23c.001-7.2-5.857-13.059-13.057-13.059zM182.73 43.021h-12.776V15.193h12.776zm131.281 91.208v27.829h-12.776v-27.829zM112.734 204.23h12.777v27.828h-12.777zm-60.545 0h45.545v30.853c0 6.604 5.373 11.976 11.976 11.976h18.825c6.604 0 11.976-5.372 11.976-11.976V204.23h45.545v108.788H52.189zm96.132 151.617h-12.776v-27.829h12.776zm248.501 12.171v27.829h-12.777v-27.829zM497 496.807H283.867V368.018h85.178v30.853c0 6.604 5.373 11.977 11.977 11.977h18.824c6.604 0 11.977-5.373 11.977-11.977v-30.853h85.178v128.789z"/></svg><svg viewBox="0 0 511.999 511" id="plane" xmlns="http://www.w3.org/2000/svg"><path d="M488.656 319.172l14.649-14.645c9.218-9.222 9.218-24.226 0-33.449-4.47-4.465-10.407-6.926-16.727-6.926-4.742 0-9.273 1.387-13.125 3.97l-3.086-10.36 15.856-15.86c9.222-9.222 9.222-24.226 0-33.445-8.489-8.492-21.871-9.144-31.141-2l-18.789-63.078a1604.216 1604.216 0 0021.465-21.031c19.52-19.524 35.39-40.184 44.691-58.184 15.715-30.422 9.137-46.684.852-54.969-8.281-8.285-24.543-14.86-54.969.856-17.996 9.297-38.66 25.168-58.18 44.691a1579.784 1579.784 0 00-21.03 21.461l-63.083-18.789c7.145-9.266 6.492-22.648-1.996-31.14-9.223-9.22-24.227-9.223-33.445 0l-15.86 15.859-10.363-3.086c2.582-3.856 3.969-8.387 3.969-13.129a23.5 23.5 0 00-6.926-16.723c-9.219-9.222-24.227-9.222-33.445 0L193.328 23.84 118.684 1.605a7.547 7.547 0 00-7.493 1.899L91.977 22.719c-3.227 3.222-2.801 8.734.878 11.426L281.191 172c-42.464 47.879-83.37 95.816-112.25 130.066l-55.398-21.308a7.548 7.548 0 00-8.047 1.707l-22.773 22.773a7.55 7.55 0 000 10.672l113.863 113.863c2.906 2.91 7.766 2.91 10.676 0l22.77-22.77a7.547 7.547 0 001.706-8.05l-21.304-55.394c34.25-28.88 82.183-69.786 130.066-112.254l14.96 20.445c2.657 3.629 8.044 4.098 11.302 1.004 2.715-2.578 3.09-6.902.883-9.918l-15.817-21.61c25.04-22.347 49.766-44.894 72.2-66.14l71.113 238.73-9.809 9.805-97.738-133.531a7.547 7.547 0 00-10.547-1.633 7.545 7.545 0 00-1.633 10.55l102.941 140.638c2.692 3.68 8.204 4.105 11.426.878l19.215-19.214a7.55 7.55 0 001.899-7.493zM281.273 36.949c3.297-3.297 8.801-3.297 12.098 0 3.336 3.336 3.336 8.762 0 12.098l-3.539 3.539-18.645-5.555zm-62.625-17.078c3.332-3.336 8.762-3.336 12.098 0 3.336 3.336 3.336 8.762 0 12.098l-2.328 2.324-18.64-5.55zm-109.773 7.293l9.809-9.805 238.73 71.11c-21.246 22.437-43.793 47.164-66.144 72.203zm3.828 269.445l45.957 17.676a6818.117 6818.117 0 00-25.582 30.633l-34.344-34.344zm31.098 59.032c26.312-31.746 165.394-198.594 257.027-290.227 18.18-18.184 38.024-33.473 54.434-41.95 12.32-6.366 28.804-12.155 37.367-3.593s2.77 25.047-3.594 37.367c-8.476 16.41-23.77 36.25-41.953 54.434-91.625 91.625-258.477 230.71-290.223 257.027zm72.09 44.156l-13.965 13.965-34.344-34.344c6.281-5.211 16.906-14.05 30.633-25.578zm264.64-118.043c3.336-3.336 8.762-3.336 12.098 0 3.336 3.336 3.336 8.762 0 12.098l-8.871 8.87-5.555-18.64zm-17.078-62.625c3.332-3.336 8.762-3.332 12.098 0 3.297 3.297 3.297 8.8 0 12.098l-10.086 10.086-5.555-18.645zm0 0M453.082 435.203l-64.41 64.41c-2.746 2.75-2.93 7.29-.402 10.242 2.824 3.297 8.007 3.504 11.078.434l64.41-64.41a7.547 7.547 0 000-10.676c-2.946-2.945-7.727-2.945-10.676 0zm0 0"/><path d="M431.55 413.672a7.542 7.542 0 000-10.672 7.542 7.542 0 00-10.671 0l-40.258 40.254c-2.746 2.75-2.93 7.289-.402 10.242 2.824 3.297 8.008 3.504 11.078.434zm0 0M407.398 373.418a7.547 7.547 0 000-10.676 7.547 7.547 0 00-10.675 0l-28.18 28.18c-2.746 2.746-2.93 7.289-.398 10.242 2.82 3.297 8.003 3.504 11.074.434zm0 0M77.297 52.766c-2.95-2.946-7.73-2.946-10.676 0L2.211 117.18a7.542 7.542 0 000 10.672c2.906 2.906 7.766 2.906 10.676 0l64.41-64.41a7.554 7.554 0 000-10.676zm0 0M109.5 84.973a7.542 7.542 0 00-10.672 0L58.57 125.23c-2.75 2.747-2.93 7.286-.402 10.239 2.824 3.297 8.004 3.504 11.074.433L109.5 95.648a7.547 7.547 0 000-10.675zm0 0M110.902 147.98c2.91 2.907 7.766 2.907 10.676 0l28.18-28.18a7.554 7.554 0 000-10.675 7.554 7.554 0 00-10.676 0l-28.18 28.18a7.554 7.554 0 000 10.675zm0 0"/></svg><svg viewBox="0 0 24 24" id="protected" xmlns="http://www.w3.org/2000/svg"><path d="M19 24a.495.495 0 01-.2-.042c-.196-.085-4.8-2.144-4.8-6.351v-3.536c0-.212.135-.402.335-.472l4.5-1.571a.504.504 0 01.33 0l4.5 1.571c.2.07.335.26.335.472v3.536c0 4.208-4.604 6.266-4.8 6.351A.495.495 0 0119 24zm-4-9.574v3.181c0 3.105 3.163 4.914 3.999 5.338.836-.425 4.001-2.242 4.001-5.338v-3.181l-4-1.396z"/><path d="M18.591 19.769l-.027-.001a.498.498 0 01-.368-.193l-1.637-2.115a.5.5 0 01.791-.613l1.283 1.659 2.462-2.546a.5.5 0 01.719.695l-2.863 2.961a.503.503 0 01-.36.153zM19.5 11a.5.5 0 01-.5-.5V6.059l-8.771 4.388a.5.5 0 01-.447-.894l9.494-4.75A.5.5 0 0120 5.25v5.25a.5.5 0 01-.5.5z"/><path d="M9.994 20a.493.493 0 01-.233-.058l-9.494-5A.499.499 0 010 14.5V5.25a.5.5 0 01.723-.447l9.494 4.75a.5.5 0 01.276.447v9.5a.502.502 0 01-.499.5zM1 14.198l8.494 4.473v-8.362L1 6.059z"/><path d="M19.5 5.75a.504.504 0 01-.224-.053L9.994 1.059.724 5.697a.5.5 0 01-.448-.894L9.77.053a.502.502 0 01.447 0l9.506 4.75a.5.5 0 01-.223.947z"/><path d="M5.043 11.739a.5.5 0 01-.5-.5V7.521a.5.5 0 01.276-.447l9.494-4.75a.5.5 0 01.447.895L5.543 7.831v3.409a.5.5 0 01-.5.499zM9.994 20a.5.5 0 01-.234-.942l2.006-1.064a.5.5 0 11.469.884l-2.006 1.064a.513.513 0 01-.235.058z"/></svg><svg viewBox="0 0 512.001 512.001" id="purse" xmlns="http://www.w3.org/2000/svg"><path d="M489.502 218.492h-7.496V115.988c0-26.192-21.309-47.501-47.5-47.501H228.527L89.564 28.783c-.04-.011-.081-.017-.121-.028-.041-.011-.08-.027-.121-.037-.084-.021-.167-.031-.25-.049-.129-.027-.258-.055-.387-.076-.117-.019-.232-.031-.349-.045a7.042 7.042 0 00-.406-.038c-.11-.006-.219-.007-.329-.009a7.276 7.276 0 00-.418.003c-.103.004-.206.014-.308.022a6.712 6.712 0 00-.427.046c-.096.014-.191.032-.286.049-.146.026-.29.054-.433.089-.089.022-.176.047-.264.072-.146.042-.29.085-.434.135-.081.029-.161.06-.242.092a7.358 7.358 0 00-.43.18c-.075.035-.148.073-.222.11a6.66 6.66 0 00-.416.224c-.071.041-.139.085-.209.129-.134.084-.266.17-.394.263-.067.048-.132.1-.198.151a7.277 7.277 0 00-.362.295c-.066.058-.129.119-.193.179-.11.104-.219.208-.323.318-.065.069-.126.141-.189.213a7.45 7.45 0 00-.278.334c-.064.083-.124.168-.185.253a6.913 6.913 0 00-.229.338c-.062.098-.119.2-.176.301a6.86 6.86 0 00-.183.338c-.056.112-.106.227-.157.342-.05.113-.099.226-.143.342-.046.122-.086.247-.127.373-.026.081-.058.157-.082.239-.012.041-.017.081-.028.121-.011.041-.027.08-.037.121l-8.576 34.312H47.505C21.366 68.485.094 89.708.008 115.828c-.001.054-.008.105-.008.158v260c0 4.14 3.37 7.5 7.5 7.5 4.14 0 7.5-3.36 7.5-7.5V150.579c8.504 7.996 19.938 12.91 32.505 12.91h387.001l.026-.001c17.908.014 32.474 14.588 32.474 32.501v52.504h-82.512l-.014.001a7.468 7.468 0 00-1.355.13c-.035.006-.069.009-.104.016a7.536 7.536 0 00-.579.145c-.042.012-.085.02-.126.033-.17.052-.335.114-.5.177-.063.024-.127.044-.19.07-.138.057-.271.124-.404.189-.088.042-.177.081-.263.126-.104.055-.202.118-.302.178-.111.066-.224.13-.332.202-.073.048-.14.103-.21.154-.128.092-.257.183-.379.284-.053.044-.102.093-.153.138-.131.114-.262.227-.386.351-.073.073-.139.153-.208.229-.097.105-.197.208-.289.32a7.573 7.573 0 00-.444.599l-39.998 60.001a7.383 7.383 0 00-.702 1.322c-.071.172-.128.347-.185.521-.017.053-.039.104-.055.157a7.46 7.46 0 00-.14.558c-.011.049-.025.097-.035.146a7.265 7.265 0 00-.076.506c-.009.072-.023.144-.03.217-.014.139-.017.277-.022.416-.005.106-.014.212-.014.319 0 .103.009.206.013.309.005.142.009.285.023.427.007.069.02.138.029.207.022.172.044.344.078.515.009.047.023.093.034.14.041.188.085.376.141.563.016.053.038.104.055.158.057.174.114.349.185.521.188.46.424.904.704 1.323l39.997 59.992.006.008c.161.239.337.467.523.686.061.072.126.139.189.207a7.508 7.508 0 001.091.979c.07.051.137.107.208.155.225.153.458.294.699.422.061.032.124.059.185.089a7.239 7.239 0 001.407.532c.081.021.161.043.243.063.203.047.409.083.618.113.076.011.151.026.227.035.258.029.52.045.786.047.021 0 .042.004.064.004l.014-.001h82.491V436c0 17.922-14.58 32.502-32.5 32.502h-387c-17.92 0-32.5-14.58-32.5-32.502 0-.039-.005-.077-.006-.116V405.99c0-4.13-3.36-7.5-7.5-7.5-4.13 0-7.5 3.37-7.5 7.5V436c0 .078.009.154.012.231.125 26.086 21.38 47.271 47.494 47.271h387c26.189 0 47.496-21.305 47.5-47.494v-52.516h7.496c12.404 0 22.496-10.092 22.496-22.496V240.988c-.003-12.404-10.095-22.496-22.499-22.496zM92.9 45.336l132.339 37.813.019.005 88.696 25.342H77.114L92.9 45.336zm374.105 116.058c-8.503-7.994-19.935-12.907-32.499-12.907l-.039.002H47.505c-17.921 0-32.501-14.58-32.501-32.501s14.58-32.501 32.501-32.501h20.398l-6.25 25.009H47.507a7.5 7.5 0 000 15h19.976l.032.002.023-.002h299.941l.028.002.024-.002h56.966a7.5 7.5 0 000-15h-55.943l-87.529-25.009h153.48c17.92 0 32.5 14.58 32.5 32.501v45.406zm29.993 199.598c0 4.133-3.363 7.496-7.496 7.496H388.508l-34.999-52.494 34.999-52.502h100.994c.105 0 .207-.012.311-.016a22.414 22.414 0 007.185-1.281v98.797zm-7.496-112.508c-.052 0-.103.007-.155.008h-7.341v-15h7.496c4.133 0 7.496 3.363 7.496 7.496s-3.363 7.496-7.496 7.496z"/><path d="M414.499 288.493c-15.164 0-27.5 12.337-27.5 27.501s12.336 27.5 27.5 27.5 27.5-12.336 27.5-27.5-12.336-27.501-27.5-27.501zm0 40.001c-6.893 0-12.5-5.607-12.5-12.5s5.607-12.501 12.5-12.501 12.5 5.608 12.5 12.501-5.607 12.5-12.5 12.5z"/></svg><svg viewBox="0 0 512 512" id="stock" xmlns="http://www.w3.org/2000/svg"><path d="M507.785 146.242L260.318 1.175a8.53 8.53 0 00-8.439-.111L4.412 137.598A8.516 8.516 0 000 145.064v358.4a8.53 8.53 0 008.533 8.533H51.2a8.53 8.53 0 008.533-8.533V204.798h392.533v298.667a8.525 8.525 0 008.533 8.533h42.667a8.525 8.525 0 008.533-8.533V153.598a8.515 8.515 0 00-4.214-7.356zm-12.852 348.689h-25.6V196.264a8.53 8.53 0 00-8.533-8.533H51.2a8.536 8.536 0 00-8.533 8.533v298.667h-25.6V150.099L255.872 18.344l239.061 140.143v336.444z"/><path d="M426.667 392.531h-102.4a8.525 8.525 0 00-8.533 8.533v102.4a8.525 8.525 0 008.533 8.533h102.4a8.525 8.525 0 008.533-8.533v-102.4a8.525 8.525 0 00-8.533-8.533zm-8.534 102.4H332.8v-85.333h85.333v85.333z"/><path d="M384 401.064v25.6h-17.067v-25.6h-17.067v34.133a8.525 8.525 0 008.533 8.533h34.133a8.525 8.525 0 008.533-8.533v-34.133H384zM324.267 392.531h-102.4a8.53 8.53 0 00-8.533 8.533v102.4a8.53 8.53 0 008.533 8.533h102.4a8.525 8.525 0 008.533-8.533v-102.4a8.525 8.525 0 00-8.533-8.533zm-8.534 102.4H230.4v-85.333h85.333v85.333z"/><path d="M281.6 401.064v25.6h-17.067v-25.6h-17.067v34.133a8.53 8.53 0 008.533 8.533h34.133a8.525 8.525 0 008.533-8.533v-34.133H281.6zM426.667 290.131h-102.4a8.525 8.525 0 00-8.533 8.533v102.4a8.525 8.525 0 008.533 8.533h102.4a8.525 8.525 0 008.533-8.533v-102.4a8.525 8.525 0 00-8.533-8.533zm-8.534 102.4H332.8v-85.333h85.333v85.333z"/><path d="M384 298.664v25.6h-17.067v-25.6h-17.067v34.133a8.525 8.525 0 008.533 8.533h34.133a8.525 8.525 0 008.533-8.533v-34.133H384zM51.2 255.998h409.6v17.067H51.2zM51.2 221.864h409.6v17.067H51.2zM298.667 119.464h-85.333a8.536 8.536 0 00-8.533 8.533v34.133a8.536 8.536 0 008.533 8.533h85.333a8.53 8.53 0 008.533-8.533v-34.133a8.53 8.53 0 00-8.533-8.533zm-8.534 34.134h-68.267v-17.067h68.267v17.067z"/></svg><svg viewBox="0 0 511.998 511.998" id="supplies" xmlns="http://www.w3.org/2000/svg"><path d="M454.891 417.317c-2.773-4.804-8.916-6.451-13.724-3.677l-36.521 21.083c-4.805 2.774-6.452 8.919-3.677 13.724a10.045 10.045 0 0013.724 3.678l36.521-21.083c4.804-2.775 6.452-8.919 3.677-13.725z"/><path d="M509.472 291.046a9.914 9.914 0 00-.081-1.227l-.014-.081a10.078 10.078 0 00-.219-1.091c-.026-.102-.055-.2-.083-.3a9.976 9.976 0 00-.296-.868c-.039-.098-.074-.199-.116-.296a10.153 10.153 0 00-.522-1.057l-.018-.031c-.199-.344-.42-.666-.652-.977-.063-.085-.133-.166-.199-.248a9.988 9.988 0 00-.822-.913 9.882 9.882 0 00-.838-.737c-.021-.016-.04-.035-.061-.051a10.03 10.03 0 00-1.021-.683c-.026-.015-.049-.035-.075-.05l-116.696-67.369V80.316c0-.029-.005-.056-.006-.085a10.012 10.012 0 00-.082-1.233l-.011-.061a9.806 9.806 0 00-.224-1.114c-.024-.095-.052-.19-.079-.285a10.143 10.143 0 00-.303-.89c-.036-.092-.069-.186-.108-.276a10.173 10.173 0 00-.532-1.079c-.203-.352-.429-.68-.666-.998-.06-.081-.127-.158-.19-.237a9.823 9.823 0 00-.826-.919 10.103 10.103 0 00-.84-.74l-.059-.05c-.328-.251-.67-.477-1.024-.685-.025-.015-.047-.034-.072-.048L261.023 1.346a10.048 10.048 0 00-10.047 0L129.265 71.615c-.024.014-.044.031-.068.045-.356.209-.7.436-1.031.69-.016.012-.03.026-.046.039a10.057 10.057 0 00-1.676 1.666c-.063.079-.13.157-.191.239-.237.317-.462.646-.665.997-.203.352-.375.711-.531 1.075-.04.094-.074.192-.112.287a9.852 9.852 0 00-.381 1.17c-.093.365-.17.732-.221 1.101-.003.025-.01.048-.013.073-.054.409-.078.82-.081 1.229 0 .029-.006.058-.006.087v134.749L7.545 282.433c-.025.014-.046.033-.07.047a9.845 9.845 0 00-1.028.688l-.047.039c-.297.231-.58.483-.852.751-.072.07-.141.143-.211.215a10.05 10.05 0 00-.612.7c-.064.08-.132.159-.193.241-.234.313-.456.638-.657.985l-.01.016a9.97 9.97 0 00-.527 1.068c-.041.096-.076.196-.115.294a10.374 10.374 0 00-.6 2.262l-.014.079a9.933 9.933 0 00-.081 1.229c0 .029-.006.057-.006.086v140.549h.001c0 3.59 1.915 6.906 5.023 8.701l121.721 70.268c.024.014.051.023.075.037.358.203.725.387 1.108.546l.069.025c.345.14.7.257 1.063.359.099.028.199.052.298.076.296.073.598.132.904.178.103.016.206.035.31.047.392.046.79.077 1.194.077.404 0 .802-.031 1.194-.077.104-.012.207-.032.31-.047.306-.046.607-.104.903-.178.1-.025.2-.049.3-.077.361-.1.714-.218 1.057-.357.025-.01.05-.017.075-.028a9.832 9.832 0 001.104-.544c.025-.014.052-.024.078-.038l116.687-67.369 116.687 67.369c.026.015.053.024.079.039.356.202.722.385 1.103.543.026.011.053.018.079.029.342.139.694.255 1.054.356.1.028.201.052.301.077.295.073.597.132.902.178.104.016.207.035.311.047.392.046.789.077 1.194.077.405 0 .802-.031 1.194-.077.104-.012.207-.032.311-.047.305-.046.607-.104.902-.178.1-.025.201-.049.301-.077.36-.1.711-.217 1.054-.356.026-.01.053-.018.079-.029.381-.158.747-.342 1.103-.543.026-.015.053-.024.079-.039l121.721-70.268a10.045 10.045 0 005.024-8.701V291.135c.004-.031-.002-.059-.002-.089zm-90.884-34.981L316.97 314.734l-40.877-23.601 101.616-58.667 40.879 23.599zm-50.925-41l-101.616 58.667V156.396L367.663 97.72v117.345zM255.999 21.648l40.877 23.6-101.619 58.67-40.875-23.602 101.617-58.668zM134.288 232.467l40.872 23.597-101.62 58.668-40.876-23.598 101.624-58.667zm-10.046 252.084L22.615 425.883V308.536l43.286 24.989a10.009 10.009 0 004.845 2.797l53.496 30.884v117.345zm10.047-134.748l-40.653-23.469 101.617-58.669 40.652 23.47-101.616 58.668zm111.663 76.08L144.336 484.55V367.205l101.616-58.669v117.347zm0-152.15l-101.616-58.667V97.719l43.259 24.98a10.01 10.01 0 004.881 2.818l53.477 30.879v117.337zm-30.6-158.211L316.97 56.849l40.646 23.467L256 138.993l-40.648-23.471zm152.31 369.027l-101.615-58.666V308.536l43.285 24.99a10.015 10.015 0 004.836 2.792l53.495 30.885v117.346zm10.048-134.746l-40.646-23.467 101.618-58.67 40.652 23.469-101.624 58.668zm111.673 76.08l-101.626 58.668V367.205l101.626-58.669v117.347z"/><path d="M471.342 399.171c-12.93 0-12.951 20.094 0 20.094 12.929 0 12.951-20.094 0-20.094z"/></svg><svg viewBox="0 0 60 60" id="train" xmlns="http://www.w3.org/2000/svg"><g fill-rule="nonzero"><path d="M1.055 58.969A2 2 0 002.805 60h8.5a2.01 2.01 0 001.873-1.3l.263-.7h33.116l.263.7a2.01 2.01 0 001.873 1.3h8.5a2 2 0 001.7-3.061L46.908 37.773A8.975 8.975 0 0050 31V16C49.99 7.168 42.832.01 34 0h-8c-8.832.01-15.99 7.168-16 16v15a8.975 8.975 0 003.092 6.773L1.109 56.939a2 2 0 00-.054 2.03zM14.193 56l.75-2h30.114l.75 2zm6-16h19.614l.75 2H19.443zm-1.5 4h22.614l.75 2H17.943zm-1.5 4h25.614l1.5 4H15.693zm40 10h-8.5l-6.768-18.048a8.936 8.936 0 003.343-1.031zM41 38h-2.995c.051-4.344.748-11.241 9.995-15.483V31a7.008 7.008 0 01-7 7zM26 2h8c7.729.008 13.992 6.271 14 14v4.335C36.846 25.03 36.059 33.289 36.005 38H24c-.059-4.711-.846-12.97-12-17.665V16c.008-7.729 6.271-13.992 14-14zM12 31v-8.483C21.247 26.759 21.944 33.656 22 38h-3a7.008 7.008 0 01-7-7zm2.732 7.921c1.036.56 2.172.91 3.343 1.031L11.307 58h-8.5z"/><path d="M15 33h2a1 1 0 000-2h-2a1 1 0 000 2zM45 31h-2a1 1 0 000 2h2a1 1 0 000-2zM16.039 18.958a24.63 24.63 0 013.813 2.584c.356.295.803.457 1.265.458h17.766c.462-.001.91-.163 1.265-.458a24.63 24.63 0 013.813-2.584A2 2 0 0045 17.211V16c-.007-6.072-4.928-10.993-11-11h-8c-6.072.007-10.993 4.928-11 11v1.211a2 2 0 001.039 1.747zM43 16l-.008 1.208A26.159 26.159 0 0038.883 20H31V7h3a9.01 9.01 0 019 9zm-26 0a9.01 9.01 0 019-9h3v13h-7.871A26.132 26.132 0 0017 17.211zM32 25h-4a1 1 0 000 2h4a1 1 0 000-2zM32 29h-4a1 1 0 000 2h4a1 1 0 000-2zM32 33h-4a1 1 0 000 2h4a1 1 0 000-2z"/></g></svg><svg viewBox="0 0 64 64" id="truck" xmlns="http://www.w3.org/2000/svg"><path d="M56 47h-1V3a1 1 0 00-1-1H10a1 1 0 00-1 1v44H8a1 1 0 00-1 1v5a1 1 0 001 1h4v3a5 5 0 0010 0v-3h20v3a5 5 0 0010 0v-3h4a1 1 0 001-1v-5a1 1 0 00-1-1zM11 4h42v43h-1v-5a6.993 6.993 0 00-3-5.736V24a5.006 5.006 0 00-5-5v-5a1 1 0 00-2 0v5H21v-5a1 1 0 00-2 0v5.1a5.009 5.009 0 00-4 4.9v12.264A6.993 6.993 0 0012 42v5h-1zm27 40H26v-1h12zm-12 2h12v1H26zm14-4a1 1 0 00-1-1H25a1 1 0 00-1 1v5H14v-5a5.006 5.006 0 015-5h26a5.006 5.006 0 015 5v5H40zM20 21h24a3 3 0 013 3v11.3a6.956 6.956 0 00-2-.3H19a6.956 6.956 0 00-2 .3V24a3 3 0 013-3zm0 36a3 3 0 01-6 0v-3h6zm30 0a3 3 0 01-6 0v-3h6zm5-5H9v-3h46z"/><path d="M19 40a3 3 0 103 3 3 3 0 00-3-3zm0 4a1 1 0 111-1 1 1 0 01-1 1zM45 40a3 3 0 103 3 3 3 0 00-3-3zm0 4a1 1 0 111-1 1 1 0 01-1 1zM20 33h24a1 1 0 001-1v-8a1 1 0 00-1-1H20a1 1 0 00-1 1v8a1 1 0 001 1zm1-8h22v6H21z"/></svg><svg viewBox="0 0 54 54" id="uparrow" xmlns="http://www.w3.org/2000/svg"><path d="M27 0C12.112 0 0 12.112 0 27s12.112 27 27 27 27-12.112 27-27S41.888 0 27 0zm0 52C13.215 52 2 40.785 2 27S13.215 2 27 2s25 11.215 25 25-11.215 25-25 25z"/><path d="M28.884 17.355c-.307-.53-.855-.848-1.469-.848s-1.162.317-1.469.848l-8.719 15.102a1.677 1.677 0 000 1.695c.307.532.856.848 1.469.848h17.438c.613 0 1.162-.316 1.469-.848a1.677 1.677 0 000-1.695l-8.719-15.102zM19.224 33l8.191-14.188L35.606 33H19.224z"/></svg><svg viewBox="0 0 490.667 490.667" id="user" xmlns="http://www.w3.org/2000/svg"><path d="M245.333 0C110.059 0 0 110.059 0 245.333s110.059 245.333 245.333 245.333 245.333-110.059 245.333-245.333S380.608 0 245.333 0zm0 469.333c-123.52 0-224-100.48-224-224s100.48-224 224-224 224 100.48 224 224-100.48 224-224 224z"/><path d="M245.333 234.667c-76.459 0-138.667 62.208-138.667 138.667 0 5.888 4.779 10.667 10.667 10.667S128 379.221 128 373.333C128 308.629 180.629 256 245.333 256s117.333 52.629 117.333 117.333c0 5.888 4.779 10.667 10.667 10.667S384 379.221 384 373.333c0-76.458-62.208-138.666-138.667-138.666zM245.333 64c-41.173 0-74.667 33.493-74.667 74.667s33.493 74.667 74.667 74.667S320 179.84 320 138.667 286.507 64 245.333 64zm0 128C215.936 192 192 168.064 192 138.667s23.936-53.333 53.333-53.333 53.333 23.936 53.333 53.333S274.731 192 245.333 192z"/></svg><svg viewBox="0 0 128 128" id="warehouse" xmlns="http://www.w3.org/2000/svg"><path d="M121.693 111.2h-5.766V41.96a1.751 1.751 0 00-.736-1.427L65.014 4.88a1.752 1.752 0 00-2.028 0L12.809 40.533a1.751 1.751 0 00-.736 1.427v69.24H6.307a1.749 1.749 0 00-1.75 1.75v8.739a1.749 1.749 0 001.75 1.75h115.386a1.749 1.749 0 001.75-1.75v-8.739a1.749 1.749 0 00-1.75-1.75zM15.573 42.863L64 8.454l48.427 34.409V111.2h-7.381V52.916a1.749 1.749 0 00-1.75-1.75H24.7a1.749 1.749 0 00-1.75 1.75V111.2h-7.377zM88.426 111.2V90.277a1.75 1.75 0 00-1.75-1.75h-9.588V67.6a1.75 1.75 0 00-1.75-1.75H52.662a1.75 1.75 0 00-1.75 1.75v20.927h-9.588a1.75 1.75 0 00-1.75 1.75V111.2h-13.12V54.666h75.092V111.2zm-45.352 0V98.983H62.25V111.2zm41.852-15.717H65.75v-3.456h19.176zM73.588 72.807H54.412v-3.456h19.176zm-19.176 3.5h19.176v12.22H54.412zm7.838 15.72v3.456H43.074v-3.456zm3.5 6.956h19.176V111.2H65.75zm54.193 20.96H8.057V114.7h111.886z"/><path d="M57.183 47.148h13.634a1.75 1.75 0 001.75-1.75v-6.877a1.751 1.751 0 00-1.75-1.75H57.183a1.751 1.751 0 00-1.75 1.75V45.4a1.75 1.75 0 001.75 1.748zm1.75-6.877h10.134v3.377H58.933zM78.068 47.148H91.7a1.75 1.75 0 001.75-1.75v-6.877a1.751 1.751 0 00-1.75-1.75H78.068a1.751 1.751 0 00-1.75 1.75V45.4a1.75 1.75 0 001.75 1.748zm1.75-6.877h10.133v3.377H79.818zM36.3 47.148h13.632a1.75 1.75 0 001.75-1.75v-6.877a1.751 1.751 0 00-1.75-1.75H36.3a1.751 1.751 0 00-1.75 1.75V45.4a1.75 1.75 0 001.75 1.748zm1.75-6.877h10.132v3.377H38.049z"/></svg><svg data-name="Layer 1" viewBox="0 0 128 128" id="world" xmlns="http://www.w3.org/2000/svg"><path d="M75.846 32.473a1.317 1.317 0 00.831-.294 1.25 1.25 0 00-1.584-1.935l-.085.071a1.217 1.217 0 00-.113 1.726 1.233 1.233 0 00.951.432z"/><path d="M85.5 68.324a1.251 1.251 0 00.907-.39c.63-.665 15.426-16.373 15.426-25.1a16.343 16.343 0 00-21.906-15.358 1.25 1.25 0 10.853 2.35 13.843 13.843 0 0118.553 13.008c0 5.99-9.262 17.389-13.833 22.4-4.571-5.013-13.833-16.41-13.833-22.4a13.821 13.821 0 011.923-7.042 1.25 1.25 0 10-2.15-1.274 16.321 16.321 0 00-2.272 8.316c0 8.728 14.8 24.436 15.426 25.1a1.251 1.251 0 00.906.39z"/><path d="M85.5 52.239a9.406 9.406 0 10-9.406-9.406 9.417 9.417 0 009.406 9.406zm0-16.312a6.906 6.906 0 11-6.906 6.906 6.914 6.914 0 016.906-6.906zM85.5 72.506a1.241 1.241 0 00-1.348 1.145 27.143 27.143 0 01-1.585 7.169 7.316 7.316 0 01-2.831-9.033c2.592-7.43-1.788-10.213-6.426-13.16a31.147 31.147 0 01-6.375-4.893c-2.287-2.451-2.59-5.652-.875-9.5a1.282 1.282 0 00-.782-1.716 29.737 29.737 0 00-8.658-1.263 30.125 30.125 0 1027.66 42.017c.021-.034.049-.062.066-.1a1.179 1.179 0 00.038-.153 29.615 29.615 0 002.259-9.161 1.25 1.25 0 00-1.143-1.352zM65.351 97.563a8 8 0 00-7.607-5.054 8.839 8.839 0 01-7.392-4.58 6.138 6.138 0 01.155-6.469 11.607 11.607 0 00.73-11.266 11.241 11.241 0 00-9.256-6.33 7.843 7.843 0 01-5.064-2.916 1.25 1.25 0 00-1.883 1.645 10.257 10.257 0 006.685 3.756 8.683 8.683 0 017.26 4.916 9.094 9.094 0 01-.564 8.825 8.592 8.592 0 00-.262 9.026 11.281 11.281 0 009.59 5.89 5.427 5.427 0 015.185 3.25 27.252 27.252 0 01-6.3.742 27.625 27.625 0 116.626-54.434c-1.477 4.236-.854 7.975 1.858 10.876a33.587 33.587 0 006.862 5.3c4.581 2.911 7.346 4.668 5.405 10.227a9.794 9.794 0 004.21 12.188 27.97 27.97 0 01-16.238 14.408z"/></svg></svg>